<?xml version="1.0" standalone="no"?>
<!DOCTYPE svg PUBLIC "-//W3C//DTD SVG 20010904//EN"
 "http://www.w3.org/TR/2001/REC-SVG-20010904/DTD/svg10.dtd">
<svg version="1.0" xmlns="http://www.w3.org/2000/svg"
 width="1024.000000pt" height="1024.000000pt" viewBox="0 0 1024.000000 1024.000000"
 preserveAspectRatio="xMidYMid meet">

<g transform="translate(0.000000,1024.000000) scale(0.100000,-0.100000)"
fill="#000000" stroke="none">
<path d="M0 5120 l0 -5120 5120 0 5120 0 0 5120 0 5120 -5120 0 -5120 0 0
-5120z m5495 3856 c17 -3 71 -7 120 -11 385 -27 976 -178 1357 -348 l58 -26
58 39 c75 50 180 95 260 110 86 17 250 8 332 -19 192 -61 387 -254 437 -434
17 -58 17 -58 49 -52 32 6 32 5 53 -57 30 -91 44 -244 30 -342 -27 -198 -135
-368 -285 -447 l-44 -24 2 -220 3 -220 60 -6 c129 -12 245 -77 319 -177 107
-147 106 -350 -4 -475 -37 -42 -39 -47 -29 -76 7 -19 10 -75 7 -134 -3 -92 -7
-110 -36 -170 -42 -85 -114 -158 -192 -194 l-60 -27 0 -98 0 -98 -55 0 -55 0
0 -557 c0 -826 -22 -1064 -135 -1468 -137 -490 -399 -956 -734 -1307 -418
-438 -963 -713 -1586 -800 -134 -19 -493 -16 -645 5 -193 27 -429 88 -597 155
l-51 21 -44 -67 c-66 -102 -172 -205 -249 -242 -74 -35 -164 -41 -227 -15 -82
35 -149 128 -172 239 -14 67 -8 134 21 234 10 37 19 68 19 69 0 0 -26 -1 -59
-4 -121 -11 -221 56 -272 183 -20 50 -24 76 -23 169 0 76 5 129 18 171 l18 61
-91 120 c-91 121 -203 294 -279 433 -88 161 -203 454 -252 641 l-22 86 -99 36
c-54 21 -103 37 -109 37 -21 0 -8 18 70 95 60 59 78 84 75 99 -20 86 -35 546
-35 1048 l0 558 -55 0 -55 0 -1 93 c-1 50 -1 95 0 99 0 4 -28 21 -62 37 -169
81 -267 283 -227 470 l13 60 -41 47 c-64 71 -85 139 -80 250 6 115 35 182 112
260 73 72 161 114 272 128 l84 10 0 307 0 307 54 46 c79 67 389 298 436 325
l40 22 0 -90 0 -90 -111 -87 c-61 -47 -155 -131 -210 -186 l-99 -100 0 -277 0
-278 -115 -6 c-143 -8 -211 -34 -280 -109 -54 -56 -72 -96 -81 -171 -11 -94
47 -233 111 -267 29 -15 29 -12 0 -119 -14 -55 -15 -73 -5 -125 15 -77 31
-107 88 -169 53 -56 116 -91 182 -102 70 -11 75 -17 44 -50 -22 -23 -25 -34
-20 -64 3 -20 6 -46 6 -57 0 -19 8 -22 59 -28 l60 -7 4 -787 c2 -433 7 -797
11 -809 8 -21 9 -20 77 20 63 38 69 45 69 74 0 22 5 33 14 33 13 0 15 45 13
307 l-1 308 -6 -289 c-4 -243 -7 -287 -18 -273 -10 12 -12 36 -8 89 3 40 8
164 12 276 6 200 6 204 -16 227 -12 13 -20 32 -18 44 3 20 8 17 60 -26 l58
-48 0 -321 0 -321 43 9 42 10 -3 714 -2 714 39 0 c24 0 48 -8 65 -21 l26 -20
0 -680 0 -679 33 0 32 0 0 663 c0 364 4 679 8 700 8 36 10 38 35 32 15 -3 38
-12 52 -18 l25 -12 3 -210 c2 -152 6 -211 15 -217 6 -4 33 -8 59 -8 l48 0 2
263 3 262 33 3 c36 4 37 11 12 77 l-10 25 -365 0 c-351 0 -365 1 -365 19 0 65
69 80 354 81 183 0 191 -1 278 -30 49 -16 91 -30 92 -30 4 0 -1 31 -15 105
l-10 50 -60 19 c-72 23 -148 86 -180 152 -27 58 -22 129 15 203 15 28 24 56
21 61 -4 6 -91 10 -213 10 -200 0 -208 1 -220 21 -9 13 -10 25 -4 31 5 5 92 8
200 6 106 -2 192 -2 192 0 0 2 -16 27 -35 57 l-35 55 -307 0 -308 1 28 24 28
25 265 0 c145 0 264 3 264 6 0 3 -8 18 -19 32 l-19 27 -289 -5 -290 -5 -41
-27 c-57 -38 -76 -78 -76 -160 -1 -38 -4 -68 -8 -68 -3 0 -24 20 -46 45 -73
83 -77 175 -9 252 64 73 63 73 520 73 224 0 407 1 407 3 0 1 -7 25 -15 52 -9
28 -20 67 -26 88 -7 28 -15 37 -32 38 -16 1 -17 3 -5 6 14 3 15 9 6 34 -12 34
-10 34 -49 13 -43 -22 -46 -12 -9 30 40 45 80 56 203 56 102 0 103 1 91 46 -6
24 -34 39 -88 49 -20 4 -36 11 -36 17 0 5 4 7 8 4 5 -3 27 -9 50 -15 38 -8 42
-7 42 10 0 12 -10 23 -26 29 -22 9 -24 13 -14 25 16 20 -1 20 -66 0 -27 -8
-53 -15 -57 -15 -18 0 8 24 66 61 71 46 170 79 237 79 52 0 163 -31 194 -53
19 -14 18 -15 -17 -28 -20 -7 -37 -15 -37 -19 1 -3 15 -22 33 -42 l32 -37 122
87 c68 48 123 90 123 93 0 3 -15 12 -32 21 l-33 15 49 21 c60 27 173 102 205
136 21 22 22 26 7 32 -19 7 -22 24 -3 24 6 0 39 13 73 29 59 28 60 29 87 101
15 40 26 75 24 77 -2 1 -35 -8 -73 -21 -127 -43 -234 -42 -323 4 l-34 17 29
10 c16 6 47 23 69 38 65 44 7 23 -147 -56 -75 -38 -140 -69 -144 -69 -11 0 75
63 143 104 126 76 175 90 303 91 100 0 120 -3 157 -22 l42 -23 25 55 c13 30
62 110 109 177 98 144 221 338 215 343 -1 1 -64 15 -138 30 -74 15 -139 30
-143 35 -12 11 96 35 298 67 171 26 198 28 525 28 371 0 441 -6 689 -61 166
-37 169 -39 71 -53 -129 -19 -220 -41 -220 -55 0 -6 24 -61 54 -122 61 -123
150 -251 215 -306 l43 -37 -44 -22 c-23 -12 -60 -32 -80 -45 l-37 -24 87 -82
c95 -91 169 -143 261 -187 54 -25 58 -30 44 -43 -14 -14 -8 -21 58 -68 41 -28
104 -68 141 -88 37 -21 68 -40 68 -43 0 -4 -12 -10 -26 -13 -14 -4 -24 -12
-21 -19 4 -14 237 -185 253 -186 16 -1 64 53 56 64 -9 13 -59 46 -92 61 -25
12 -25 12 22 33 47 21 171 43 195 34 7 -3 29 5 48 17 l36 22 -77 72 c-42 39
-91 79 -108 89 -17 11 -23 12 -13 4 25 -21 21 -28 -9 -17 -47 18 -59 10 -15
-11 35 -15 42 -22 32 -32 -19 -19 -152 -21 -234 -3 -72 16 -201 81 -191 97 2
4 41 22 86 39 73 28 92 31 163 28 72 -3 91 -8 166 -45 46 -23 125 -72 176
-108 82 -58 113 -75 113 -61 0 12 -54 153 -62 163 -6 7 -14 11 -18 8 -5 -3
-23 19 -42 48 -23 38 -43 94 -67 190 -33 129 -50 158 -51 82 0 -39 -33 -148
-46 -152 -6 -2 -8 19 -4 58 3 33 3 62 -1 65 -4 2 -6 23 -5 45 2 22 0 36 -3 30
-4 -6 -13 16 -20 49 -8 33 -18 63 -22 66 -5 3 -7 9 -4 14 3 4 -2 13 -10 20
-19 15 -19 10 0 -37 39 -102 63 -269 41 -290 -11 -11 -92 80 -121 137 -23 46
-31 76 -40 160 -5 56 15 230 27 230 16 0 117 -101 148 -148 19 -28 31 -40 34
-31 3 8 19 56 35 106 17 51 42 115 55 141 l25 49 -128 51 c-734 292 -1592 374
-2421 231 -567 -98 -1248 -370 -1718 -688 -48 -32 -98 -69 -112 -81 -35 -31
-81 -53 -90 -43 -4 4 -33 46 -63 92 -43 64 -54 88 -45 98 19 23 289 199 428
278 225 129 571 288 829 382 133 48 481 146 631 177 217 45 427 72 690 90 68
5 574 -2 615 -8z m-1474 -677 c-13 -128 -52 -218 -124 -286 l-50 -47 -9 25
c-11 28 -3 93 18 152 15 41 26 97 19 97 -5 0 -40 -64 -55 -100 -7 -19 -19 -42
-26 -50 -7 -8 -14 -31 -17 -50 -2 -23 -4 -14 -5 26 -4 126 60 245 181 340 l72
57 3 -32 c2 -18 -1 -77 -7 -132z m2305 59 c103 -107 151 -239 129 -355 l-7
-38 -14 51 c-13 52 -74 197 -80 191 -2 -2 8 -37 23 -78 14 -40 31 -95 38 -121
l13 -48 -26 14 c-37 19 -64 50 -106 120 -38 64 -45 67 -22 11 22 -52 10 -42
-19 15 -35 70 -55 161 -55 258 l0 83 31 -18 c17 -10 59 -48 95 -85z m-1891
-47 c-13 -43 -69 -133 -110 -179 -43 -47 -135 -105 -196 -122 -48 -14 -21 10
70 63 74 43 119 87 164 159 13 21 0 14 -61 -31 -83 -63 -162 -107 -162 -92 0
5 5 13 10 16 6 3 10 11 10 18 0 6 -22 -12 -50 -41 -27 -29 -54 -52 -59 -52 -5
0 0 23 10 51 65 171 139 225 312 228 62 1 68 -1 62 -18z m1530 -2 c82 -25 139
-74 184 -158 35 -66 36 -72 19 -68 -7 1 -12 -4 -10 -10 3 -19 -4 -17 -103 31
-65 33 -107 62 -152 107 -67 66 -79 68 -37 4 41 -62 64 -85 126 -125 31 -21
54 -41 50 -45 -4 -5 -2 -5 5 -2 6 4 40 -7 75 -24 34 -17 52 -28 38 -24 -14 3
-38 8 -54 11 -46 7 -154 64 -195 105 -39 37 -113 154 -126 197 -6 21 -4 22 53
22 33 0 90 -9 127 -21z m-2291 -201 c1 -148 0 -155 -27 -213 -15 -33 -45 -77
-65 -98 -36 -37 -37 -37 -44 -15 -15 53 -8 195 12 253 26 74 20 82 -10 13 -24
-56 -44 -194 -38 -265 4 -53 -7 -56 -22 -5 -33 119 -20 243 38 342 35 61 133
163 145 151 5 -5 10 -78 11 -163z m123 -60 c-3 -7 -5 -2 -5 12 0 14 2 19 5 13
2 -7 2 -19 0 -25z m2393 12 c0 -5 -5 -10 -11 -10 -5 0 -7 5 -4 10 3 6 8 10 11
10 2 0 4 -4 4 -10z m-2830 -163 c7 -54 10 -123 7 -155 -6 -60 -62 -185 -96
-216 -18 -17 -19 -16 -24 31 -3 26 -5 64 -3 83 3 38 -11 90 -24 90 -15 0 -23
-113 -14 -182 5 -37 7 -64 3 -60 -10 11 -37 102 -43 147 -14 104 42 266 125
355 50 54 50 54 69 -93z m2971 -33 c29 -9 93 -36 142 -60 85 -43 227 -129 227
-138 0 -3 -75 31 -166 75 -91 44 -171 78 -177 76 -7 -2 12 -14 41 -27 28 -12
52 -26 52 -29 0 -14 -71 -41 -132 -51 -95 -14 -207 13 -316 77 -53 30 -48 38
45 69 83 29 203 32 284 8z m-3256 -237 c25 -123 17 -225 -24 -312 -16 -36 -34
-65 -39 -65 -17 0 -46 118 -50 210 -3 71 -7 89 -14 71 -14 -39 -11 -191 6
-251 l15 -55 -23 28 c-63 78 -73 217 -23 319 30 61 116 163 127 151 4 -4 15
-48 25 -96z m765 -58 l75 -36 -73 -37 c-96 -48 -187 -69 -282 -64 -42 3 -84 9
-94 15 -16 9 -12 12 30 26 27 8 62 18 78 22 61 13 16 13 -63 -1 -76 -13 -94
-21 -191 -84 -59 -39 -110 -70 -115 -70 -25 0 169 158 256 209 125 73 253 80
379 20z m-1047 -256 c53 -133 62 -253 26 -349 -20 -52 -64 -113 -74 -102 -12
11 -35 220 -31 272 l5 61 -14 -55 c-16 -57 -16 -228 -1 -262 5 -11 4 -18 -2
-18 -5 0 -20 26 -33 58 -31 74 -32 192 -2 267 22 58 89 165 102 165 5 0 16
-17 24 -37z m-251 -989 c178 -60 225 -274 87 -398 -116 -105 -299 -73 -372 65
-27 50 -28 60 -23 124 7 79 32 126 91 170 70 54 139 66 217 39z m395 -140 c51
-10 72 -120 39 -212 -15 -41 -15 -42 4 -32 12 6 20 7 20 1 0 -14 -20 -17 -90
-13 -64 3 -66 4 -88 43 -41 71 -54 119 -41 156 12 38 44 64 67 56 10 -4 13 -2
8 5 -7 11 10 10 81 -4z m-111 -261 c-6 -6 -56 20 -56 29 0 5 13 1 30 -8 16
-10 28 -19 26 -21z m-52 -455 c14 -19 16 -62 16 -270 0 -153 -4 -248 -10 -248
-18 0 -90 85 -90 108 0 12 5 22 10 22 6 0 10 14 10 30 0 17 -5 30 -12 30 -10
0 -10 2 -1 8 8 5 12 50 14 142 0 74 0 140 -2 145 -4 11 31 55 43 55 4 0 14
-10 22 -22z m-20 -574 c44 -40 52 -51 48 -75 -3 -22 -10 -29 -27 -29 -17 0
-33 15 -59 54 -35 53 -47 96 -25 96 6 0 34 -21 63 -46z"/>
<path d="M7340 8624 c-157 -41 -294 -151 -360 -288 -47 -101 -63 -167 -63
-271 0 -156 51 -283 158 -391 74 -75 173 -133 270 -157 l48 -13 -69 -50 c-38
-28 -116 -80 -174 -114 -200 -121 -283 -187 -345 -275 -25 -34 -52 -79 -60
-99 -15 -35 -17 -36 -68 -36 -64 0 -165 -23 -216 -49 -20 -11 -61 -38 -90 -61
l-52 -41 -55 20 c-30 12 -71 21 -91 21 -28 0 -45 8 -69 31 l-32 31 -55 -16
c-30 -9 -70 -18 -88 -20 -19 -3 -94 -23 -167 -45 -73 -22 -149 -43 -168 -47
l-35 -6 3 47 3 47 65 21 c82 28 105 60 78 108 -10 17 -18 41 -18 54 0 13 -5
27 -11 30 -6 4 -7 19 -4 35 3 16 2 31 -4 35 -19 11 -12 23 19 30 16 4 32 11
36 16 3 5 -23 46 -57 91 -48 64 -62 90 -62 118 0 20 3 41 7 48 4 7 -17 57 -49
116 -55 103 -56 104 -85 96 -16 -5 -34 -11 -40 -15 -6 -3 -35 6 -65 20 -31 16
-79 29 -114 32 -34 3 -61 7 -61 9 0 2 5 26 11 54 l11 50 42 0 43 0 28 118 c44
188 99 322 172 418 30 40 28 41 -124 49 -352 19 -690 -113 -876 -343 -153
-189 -199 -311 -200 -527 0 -142 22 -219 114 -384 87 -158 105 -241 72 -327
-5 -15 -1 -14 27 6 64 46 113 105 149 180 34 72 36 79 36 190 l0 114 40 12
c22 6 43 9 48 7 4 -2 7 -28 7 -56 0 -55 19 -137 39 -176 7 -12 36 -50 65 -85
51 -60 52 -63 37 -86 -30 -47 -129 -175 -150 -194 -11 -11 -21 -23 -21 -28 0
-14 129 -9 168 8 20 8 58 33 84 55 26 21 49 39 52 39 3 0 6 -12 6 -27 0 -34
-30 -102 -65 -147 -26 -34 -26 -34 -108 -34 -122 1 -191 -22 -250 -83 -26 -27
-52 -49 -57 -49 -6 0 -38 -13 -73 -28 -87 -40 -159 -109 -196 -186 -28 -61
-44 -76 -78 -76 -27 0 -178 -76 -215 -109 -21 -18 -46 -55 -59 -86 -19 -47
-26 -54 -43 -49 -61 17 -122 105 -176 254 -34 91 -34 92 15 158 13 18 38 78
54 132 27 85 31 113 31 209 l0 111 -49 0 c-68 0 -96 -26 -114 -105 l-13 -60
-53 162 c-55 168 -97 252 -142 286 -23 17 -31 18 -63 7 -25 -8 -38 -19 -42
-37 -7 -27 -6 -30 54 -198 42 -118 58 -185 44 -185 -5 0 -33 37 -63 82 -30 46
-73 103 -96 127 -37 39 -46 43 -74 37 -46 -9 -59 -23 -59 -67 0 -46 52 -157
111 -234 59 -79 52 -115 -11 -50 -60 62 -118 76 -162 37 -22 -18 -23 -63 -4
-100 8 -15 40 -52 70 -82 31 -30 56 -60 56 -68 0 -44 76 -138 134 -166 33 -16
34 -16 40 -103 23 -293 47 -401 111 -490 62 -86 133 -191 136 -202 2 -5 63 14
139 44 74 30 187 66 250 80 296 67 400 121 540 282 30 34 57 63 60 63 3 0 22
-32 43 -71 l38 -70 -67 -102 c-207 -316 -446 -513 -734 -605 -127 -40 -235
-55 -412 -55 -82 0 -148 -2 -148 -6 0 -3 32 -37 71 -76 75 -73 140 -154 177
-217 46 -81 65 -202 42 -264 -12 -30 10 -29 -220 -8 l-66 6 -45 -49 c-38 -43
-171 -269 -210 -356 -9 -20 -17 -26 -28 -21 -9 4 -60 9 -114 12 -85 4 -108 1
-180 -22 -85 -26 -237 -113 -290 -165 l-29 -28 69 -27 c87 -35 156 -74 268
-151 136 -94 216 -129 336 -149 l37 -6 4 -98 c6 -111 28 -179 88 -269 102
-153 267 -201 440 -129 36 15 71 30 79 33 10 5 9 -1 -3 -25 -9 -17 -16 -38
-16 -46 0 -36 -35 -76 -75 -86 -92 -23 -126 -55 -181 -173 -20 -44 -45 -74
-98 -119 -99 -85 -151 -157 -181 -251 -49 -153 -27 -301 54 -370 44 -36 107
-37 178 -1 75 37 175 147 202 221 12 32 28 76 36 98 23 62 97 149 188 220 54
42 94 83 115 117 18 29 36 59 40 66 5 7 31 15 58 18 74 8 185 50 258 99 36 24
62 37 59 30 -3 -8 -9 -15 -14 -15 -5 0 -8 -3 -7 -7 5 -21 -81 -165 -128 -215
-30 -31 -54 -61 -54 -66 0 -5 -35 -12 -77 -15 -102 -9 -140 -20 -185 -57 -47
-39 -83 -113 -103 -214 -22 -106 -49 -159 -102 -204 -144 -119 -175 -165 -213
-316 -36 -140 -23 -222 46 -293 39 -41 43 -43 98 -43 69 0 82 6 169 83 90 80
150 165 201 290 60 143 58 141 165 252 161 167 172 181 161 210 -8 22 -6 26
25 40 18 9 36 22 38 30 3 7 22 16 43 20 33 6 72 23 124 54 8 5 30 15 49 22 18
7 45 22 60 34 14 12 38 25 52 28 15 4 46 23 69 42 23 19 53 35 67 35 49 0 292
202 344 286 12 20 38 41 64 53 55 25 141 103 166 154 11 21 28 41 37 44 41 15
134 87 179 138 34 39 55 55 73 55 66 1 167 45 223 99 47 44 65 79 105 201 119
362 201 978 175 1316 -9 116 -8 140 3 147 21 12 44 62 44 97 0 37 -15 69 -43
91 -21 17 -21 17 31 96 l52 79 0 210 c0 253 -23 588 -46 665 -3 11 16 23 78
48 151 58 292 165 410 310 57 69 83 93 118 107 185 73 330 194 483 404 51 69
134 179 185 245 l94 120 66 21 c192 59 285 150 355 344 35 99 30 327 -9 388
-10 14 -24 22 -44 22 -24 0 -31 5 -36 28 -25 116 -74 201 -163 285 -143 135
-348 189 -531 141z m242 -65 c74 -16 167 -62 222 -110 l46 -41 -32 -45 c-66
-93 -122 -146 -183 -174 -104 -50 -98 -58 -129 164 -14 105 -26 198 -26 205 0
15 33 15 102 1z m-149 -156 c15 -87 30 -182 33 -212 l7 -53 -79 4 c-74 4 -84
7 -164 55 -47 28 -105 72 -129 96 l-43 45 33 42 c60 74 137 129 225 159 94 33
87 41 117 -136z m507 -151 c22 -72 25 -104 10 -132 -11 -21 -93 -54 -156 -64
-37 -5 -42 -4 -48 17 -16 61 -4 88 104 221 53 66 58 63 90 -42z m-2744 -4 c-4
-18 -10 -57 -13 -86 -10 -88 -27 -75 -21 16 6 83 12 102 30 102 7 0 8 -12 4
-32z m84 25 c0 -5 -14 -48 -30 -98 l-30 -90 5 60 c6 81 23 135 40 135 8 0 15
-3 15 -7z m71 -55 c-16 -35 -31 -71 -35 -80 -10 -33 -29 -20 -23 16 10 61 44
126 66 126 19 0 19 -3 -8 -62z m-232 -60 c-1 -100 -2 -102 -14 -63 -14 42 -20
147 -8 158 18 19 23 -2 22 -95z m1971 59 c26 -24 75 -58 109 -76 64 -34 81
-54 88 -107 l4 -32 -62 15 c-136 31 -219 93 -219 161 0 47 10 82 22 82 6 0 32
-19 58 -43z m-2037 -53 c10 -110 5 -144 -12 -74 -7 30 -15 79 -18 109 -5 43
-3 53 8 49 10 -3 16 -30 22 -84z m-60 -27 c20 -112 20 -125 1 -72 -21 57 -43
153 -36 159 14 15 20 0 35 -87z m-59 -31 c14 -49 24 -91 22 -94 -14 -13 -81
172 -70 190 11 17 21 -4 48 -96z m-95 42 c5 -13 25 -61 45 -107 23 -51 30 -79
21 -71 -16 14 -95 171 -95 189 0 20 20 11 29 -11z m-12 -141 c13 -27 22 -51
20 -53 -10 -11 -109 164 -101 178 6 10 33 -32 81 -125z m2851 84 c1 -54 -1
-56 -71 -66 l-45 -7 -11 38 c-6 21 -9 39 -8 40 3 2 121 42 129 43 3 1 6 -21 6
-48z m401 -12 c13 -39 13 -39 2 -39 -5 0 -14 14 -20 31 -13 39 -13 39 -2 39 5
0 14 -14 20 -31z m-3356 -26 c89 -145 93 -174 7 -51 -42 60 -53 88 -35 88 3 0
15 -17 28 -37z m2757 11 c0 -12 3 -29 6 -37 5 -15 0 -17 -87 -32 -35 -5 -37
-4 -41 27 -3 18 -8 40 -12 49 -6 14 2 16 63 16 67 -1 71 -2 71 -23z m-2775
-116 c55 -75 60 -86 30 -58 -44 42 -115 128 -115 141 0 24 24 1 85 -83z m3363
42 c23 -46 30 -114 12 -125 -6 -4 -10 6 -10 22 0 15 -11 48 -25 72 -27 46 -33
85 -12 79 6 -2 22 -24 35 -48z m-217 -20 c-33 -28 -36 -29 -53 -13 -26 23 -22
31 15 36 73 9 74 8 38 -23z m-3207 -60 c31 -38 53 -70 49 -70 -14 0 -133 126
-126 133 12 13 19 7 77 -63z m3077 38 c7 -13 16 -26 21 -29 5 -3 1 -9 -10 -11
-15 -4 -19 -2 -15 8 4 11 -9 14 -66 14 -43 0 -71 -4 -71 -11 0 -5 5 -7 10 -4
7 4 8 -3 4 -20 -6 -26 -6 -27 27 -21 l34 6 -35 -14 -35 -13 -11 46 c-5 25 -9
48 -8 50 3 3 92 17 126 20 10 0 23 -9 29 -21z m289 -74 c28 -42 50 -83 50 -91
0 -8 -7 -28 -16 -45 -16 -30 -17 -31 -30 -13 -16 22 -18 45 -4 45 19 0 10 25
-35 94 -41 66 -47 86 -24 86 5 0 32 -34 59 -76z m-504 54 c-13 -42 -16 -69 -6
-63 5 3 10 2 10 -3 0 -21 -58 -28 -132 -16 l-37 6 17 34 c12 26 23 35 51 40
20 3 41 7 46 9 25 8 54 4 51 -7z m-2916 -63 c29 -31 50 -58 47 -62 -7 -6 -117
96 -117 108 0 19 19 6 70 -46z m669 23 c-5 -18 -9 -33 -9 -34 0 0 -26 2 -58 4
-74 5 -184 -25 -259 -70 -127 -76 -231 -236 -241 -368 -4 -65 -6 -70 -20 -56
-14 14 -15 26 -5 95 18 118 60 200 152 292 110 110 239 167 383 168 l67 1 -10
-32z m2025 0 c-9 -32 -6 -31 -71 -17 l-58 13 65 12 c36 6 66 12 68 13 2 0 0
-9 -4 -21z m-2724 -89 c45 -41 49 -47 22 -32 -48 25 -110 82 -92 82 8 0 40
-22 70 -50z m590 -56 c-21 -68 -41 -83 -30 -22 l8 41 -32 -6 c-67 -13 -161
-69 -226 -135 -44 -45 -58 -55 -44 -33 77 122 175 184 335 211 4 1 -1 -25 -11
-56z m-634 16 c72 -41 69 -47 -6 -9 -54 27 -71 40 -54 40 4 0 31 -14 60 -31z
m3439 -21 c46 -69 45 -98 -2 -137 -45 -37 -169 -104 -184 -99 -6 2 30 30 80
62 61 40 93 67 99 86 11 30 -2 65 -20 54 -7 -4 -8 -2 -4 5 4 6 -2 24 -13 40
-25 35 -26 41 -6 41 8 0 30 -24 50 -52z m-3461 -48 c36 -17 66 -32 66 -34 0
-7 -123 43 -134 54 -16 16 -3 12 68 -20z m541 -20 c-4 -6 -24 -19 -45 -30 -22
-11 -55 -34 -75 -51 -19 -17 -35 -27 -35 -21 0 15 78 82 114 98 38 16 49 17
41 4z m278 -66 c20 -10 37 -21 37 -24 0 -7 -104 -80 -125 -89 -17 -7 -77 -53
-149 -114 -116 -98 -110 -96 -157 -51 -42 41 -47 65 -25 118 30 72 114 141
209 172 53 18 161 11 210 -12z m177 -48 c0 -7 -23 -23 -52 -36 -64 -29 -237
-144 -300 -199 -65 -58 -82 -51 -23 10 60 61 193 158 289 210 69 37 86 40 86
15z m10 -45 c0 -15 -28 -33 -46 -29 -24 4 -29 25 -7 31 31 8 53 7 53 -2z m36
-60 c-4 -6 -14 -11 -22 -11 -28 0 -146 -60 -222 -113 -105 -73 -113 -77 -68
-33 47 46 171 130 231 157 24 11 47 24 51 30 4 7 11 6 21 -4 9 -8 12 -20 9
-26z m-120 17 c4 -6 -1 -17 -11 -25 -24 -17 -34 -17 -42 3 -10 26 38 47 53 22z
m-77 -47 c11 -7 8 -13 -13 -26 -21 -14 -30 -15 -39 -6 -9 10 -8 16 7 27 23 16
26 17 45 5z m-75 -50 c3 -5 -1 -14 -9 -21 -8 -7 -15 -10 -15 -7 0 3 -3 12 -6
21 -7 17 20 23 30 7z m266 -11 c0 -12 -8 -12 -35 0 -18 8 -17 9 8 9 15 1 27
-3 27 -9z m1720 -86 c-44 -42 -88 -83 -98 -90 -9 -7 -13 -14 -8 -14 5 0 38 21
75 48 153 110 225 145 165 80 l-29 -31 32 21 c25 18 36 20 58 12 24 -9 25 -12
13 -29 -50 -71 -240 -281 -310 -342 -91 -79 -254 -197 -322 -231 -22 -11 -86
-67 -141 -123 -135 -139 -165 -150 -64 -25 45 56 79 104 76 107 -4 3 -51 -20
-107 -52 -55 -31 -144 -76 -198 -99 l-97 -43 -3 28 c-4 36 52 178 89 225 72
91 165 131 327 141 75 4 128 13 177 30 39 14 77 25 86 25 9 0 27 11 40 24 l23
25 -51 -5 c-48 -5 -60 -7 -125 -21 -22 -4 -28 -2 -28 12 0 41 81 139 170 207
95 73 319 210 328 201 2 -2 -33 -38 -78 -81z m-1636 -21 c25 -31 43 -59 41
-61 -2 -2 -25 -5 -52 -5 -38 -2 -48 -6 -51 -21 -6 -27 12 -40 37 -27 18 10 21
8 27 -14 5 -19 1 -30 -11 -39 -12 -9 -16 -19 -11 -31 3 -10 9 -15 13 -12 3 4
16 -15 29 -41 12 -26 20 -50 16 -53 -8 -8 -218 3 -226 12 -3 3 -8 21 -11 40
-4 29 -3 30 4 9 7 -19 9 -10 10 41 1 75 -11 93 -73 110 -41 11 -44 21 -17 65
19 32 69 54 80 36 8 -13 121 -27 121 -15 0 5 -6 15 -12 22 -11 10 -9 15 6 27
11 8 23 14 28 14 4 0 28 -26 52 -57z m-495 -19 c31 -39 28 -98 -6 -130 -36
-34 -78 -29 -121 14 -41 40 -38 72 9 115 40 37 90 37 118 1z m149 -204 c29
-87 52 -167 52 -176 0 -15 -8 -16 -69 -10 -82 7 -143 26 -149 45 -4 11 1 12
19 7 13 -3 53 -9 88 -13 59 -6 63 -5 58 13 -73 245 -83 294 -59 294 4 0 31
-72 60 -160z m-1761 -110 c24 -47 43 -88 43 -92 0 -5 -9 -8 -20 -8 -11 0 -20
5 -20 10 0 6 -17 46 -39 90 -21 43 -36 82 -33 85 14 13 30 -6 69 -85z m1559
15 c-9 -48 -59 -117 -113 -155 -26 -19 -43 -28 -37 -20 40 51 124 173 124 180
0 5 5 21 12 37 9 23 12 25 15 10 3 -11 2 -34 -1 -52z m-1714 -225 c42 -63 77
-118 77 -122 1 -5 -7 -8 -17 -8 -15 0 -66 53 -67 70 0 3 -11 17 -25 32 -39 41
-50 57 -48 65 1 4 -6 20 -16 35 -18 27 -14 52 7 46 7 -2 47 -55 89 -118z m227
28 c11 -34 19 -63 17 -65 -7 -7 -46 21 -46 33 0 6 -7 25 -16 42 -8 18 -13 36
-9 42 15 24 35 6 54 -52z m1922 35 c6 -16 21 -64 34 -108 21 -72 23 -76 27
-45 l3 35 22 -40 c20 -39 43 -134 43 -182 0 -29 -39 -40 -83 -22 -47 19 -139
91 -191 151 -44 50 -102 170 -86 176 4 2 24 -4 44 -12 l36 -15 -6 25 c-11 44
20 18 88 -73 69 -95 86 -92 49 8 -22 56 -25 86 -15 113 9 24 23 19 35 -11z
m623 -79 c65 -131 115 -346 142 -609 18 -182 29 -568 20 -686 -7 -81 -10 -88
-48 -133 -22 -26 -42 -45 -44 -44 -2 2 3 26 11 53 21 68 36 304 26 395 -5 41
-9 65 -10 54 0 -12 -13 -82 -27 -155 -28 -146 -68 -244 -129 -314 l-34 -40 30
78 c72 188 110 402 108 610 -1 107 -2 115 -10 69 -15 -92 -99 -389 -129 -460
-53 -125 -120 -232 -146 -232 -8 0 0 28 26 84 153 332 253 836 220 1112 -11
91 -58 252 -83 282 -8 10 -7 16 4 22 19 12 31 -1 73 -86z m-138 21 c14 -30 29
-55 32 -55 11 0 39 -70 51 -130 28 -142 32 -301 11 -433 -14 -87 -55 -237 -67
-246 -4 -3 -9 -15 -11 -25 -8 -47 -101 -238 -154 -317 -68 -103 -191 -222
-262 -255 -96 -45 -105 -26 -30 58 97 108 145 179 204 303 106 221 164 405
196 620 22 150 15 363 -15 455 -11 36 -21 66 -21 67 0 1 8 4 18 6 9 3 18 5 20
6 2 0 14 -24 28 -54z m257 11 c32 -7 33 -11 9 -64 l-18 -41 -27 55 c-32 64
-32 67 -9 61 9 -3 29 -8 45 -11z m-404 -36 c12 -22 33 -83 47 -136 27 -107 33
-262 14 -370 -15 -82 -51 -204 -61 -204 -5 0 -5 -7 -2 -17 4 -11 3 -14 -5 -9
-7 4 -12 1 -13 -6 -1 -7 -2 -26 -4 -43 -13 -137 -296 -505 -453 -589 -54 -28
-54 -28 -105 -12 -78 25 -87 33 -52 46 51 19 148 95 225 176 172 180 301 439
361 721 25 118 33 413 12 449 -11 20 -9 34 7 34 3 0 16 -18 29 -40z m-2039
-61 c0 -195 -96 -350 -194 -313 -13 5 -12 9 7 25 16 13 18 18 7 19 -13 0 -13
1 0 10 13 8 12 10 -2 10 -22 0 -22 3 -4 38 25 49 51 65 93 57 38 -6 39 -6 41
28 1 18 7 49 12 67 6 22 6 38 0 44 -15 15 -12 49 6 74 26 38 34 25 34 -59z
m1940 -4 l35 -70 -1 -150 c0 -134 -3 -160 -28 -240 -73 -240 -242 -495 -392
-591 -48 -30 -172 -80 -180 -71 -2 2 22 22 54 44 221 156 361 366 459 688 24
81 25 348 1 412 -8 23 -13 45 -10 48 13 13 29 -5 62 -70z m-2105 -35 c22 -49
14 -70 -31 -81 -29 -8 -29 -8 -6 8 12 8 22 19 22 24 0 16 -27 9 -66 -18 -21
-14 -50 -27 -63 -29 -28 -3 -41 -19 -41 -51 0 -13 -4 -23 -10 -23 -23 0 -7 45
31 91 47 56 45 62 -6 18 -37 -33 -48 -21 -17 18 28 36 142 96 163 87 3 -2 14
-22 24 -44z m-370 -120 c52 -53 65 -70 50 -70 -24 0 -145 105 -145 126 0 28
27 12 95 -56z m1888 -5 c439 -114 462 -121 465 -138 2 -9 -2 -25 -7 -36 -11
-19 -11 -19 -78 0 -99 28 -108 22 -25 -16 72 -34 94 -57 74 -77 -8 -8 -21 -9
-47 -1 -37 12 -45 4 -20 -17 8 -7 22 -10 30 -6 9 3 15 0 15 -9 0 -8 -5 -15
-10 -15 -13 0 -255 140 -332 192 -32 21 -66 41 -75 45 -10 3 -25 12 -33 19 -8
7 -56 35 -105 63 -50 28 -84 51 -77 51 7 0 108 -25 225 -55z m-240 -28 c206
-96 582 -310 617 -352 11 -14 4 -31 -41 -98 -4 -5 -34 12 -68 38 -64 49 -79
66 -33 39 l27 -16 -25 21 c-14 11 -30 19 -36 17 -15 -6 -66 48 -57 59 5 4 2 5
-5 0 -9 -5 -31 9 -65 41 -65 62 -48 38 86 -125 144 -176 136 -161 103 -210
l-28 -40 -60 90 c-57 85 -78 109 -63 72 13 -36 -14 3 -50 72 -20 38 -56 97
-80 130 -51 71 -190 211 -259 260 -62 44 -54 44 37 2z m-1407 -32 c-6 -19 -14
-31 -19 -26 -5 5 -1 20 8 35 23 34 24 33 11 -9z m1252 -39 c63 -33 158 -174
133 -199 -7 -7 -7 -15 1 -25 24 -28 18 -40 -13 -25 -42 21 -58 23 -252 30
-128 4 -183 10 -192 20 -10 10 -14 10 -18 0 -2 -6 -8 -9 -12 -5 -12 11 56 116
94 146 81 61 201 88 259 58z m220 -80 c79 -83 125 -160 176 -291 54 -142 95
-321 56 -243 -18 34 -52 68 -61 62 -5 -3 -6 3 -2 12 4 10 2 15 -4 11 -11 -7
-27 31 -98 223 -46 126 -87 207 -132 268 -43 57 -8 34 65 -42z m-1430 -32 c-3
-2 -12 -2 -21 2 -13 4 -14 10 -7 24 7 13 7 21 0 25 -6 4 -7 11 -4 17 4 6 14
-6 22 -26 8 -20 12 -39 10 -42z m59 10 c-3 -3 -12 -4 -19 -1 -8 3 -5 6 6 6 11
1 17 -2 13 -5z m105 -173 c15 -32 57 -98 92 -145 81 -108 101 -159 101 -253 0
-81 8 -87 42 -27 24 41 31 117 13 144 -8 12 -2 16 33 20 42 5 42 5 47 52 7 58
31 93 94 136 75 50 143 66 256 59 107 -7 158 -19 191 -46 l23 -18 -50 -53
c-70 -75 -156 -138 -254 -187 l-84 -43 50 0 c27 0 81 9 119 19 l70 20 -25 -20
c-51 -41 -190 -99 -296 -124 -60 -14 -144 -35 -186 -46 -43 -12 -88 -19 -102
-15 -35 9 -93 83 -108 139 -14 53 -30 64 -23 15 4 -27 0 -21 -24 27 -16 33
-27 63 -24 68 2 4 0 7 -6 7 -11 0 -45 110 -55 175 l-6 41 52 -48 c28 -27 53
-47 55 -44 3 2 -2 18 -11 34 -31 61 -43 172 -17 172 3 0 18 -27 33 -59z m28
-446 c0 -5 -5 -3 -10 5 -5 8 -10 20 -10 25 0 6 5 3 10 -5 5 -8 10 -19 10 -25z
m1080 -100 c14 -17 -15 -69 -102 -187 -87 -118 -310 -313 -426 -372 -64 -33
-23 -27 70 9 92 37 220 107 308 170 70 50 76 51 44 10 -113 -150 -282 -288
-442 -362 -134 -62 -241 -83 -427 -83 -162 0 -163 0 -179 25 -9 13 -25 33 -37
44 -29 27 -16 41 39 41 49 0 231 32 292 51 260 82 541 287 750 548 27 33 57
74 66 91 21 34 27 36 44 15z m1465 -485 c23 -25 12 -65 -22 -88 -22 -14 -23
-14 -17 16 3 16 1 39 -5 51 -22 41 12 56 44 21z m-1040 -17 c0 -14 -89 -73
-109 -73 -28 0 -27 33 1 62 23 24 34 28 68 26 23 -2 40 -8 40 -15z m953 -14
c4 -36 -41 -89 -69 -82 -12 4 -18 11 -15 20 4 9 1 12 -7 7 -6 -4 -3 3 8 15 14
17 16 24 7 30 -7 4 -10 15 -6 25 5 13 16 16 43 14 30 -3 36 -7 39 -29z m-788
11 c13 -9 11 -14 -13 -35 -16 -14 -34 -22 -45 -19 -13 5 -14 4 -3 -4 11 -8 8
-13 -17 -26 -80 -42 -96 6 -23 70 27 25 75 31 101 14z m644 -13 c15 -24 -9
-64 -56 -91 -31 -17 -39 -19 -50 -8 -11 11 -11 13 1 10 7 -2 16 3 19 11 3 9 0
11 -9 6 -10 -6 -10 -3 2 11 8 10 14 30 13 44 -1 14 3 28 10 33 18 12 58 3 70
-16z m-475 0 c12 -16 -10 -41 -69 -76 -32 -19 -90 -29 -90 -15 0 3 19 27 43
55 34 39 48 49 73 49 17 0 37 -6 43 -13z m160 4 c10 -7 11 -13 2 -30 -16 -30
-89 -81 -115 -81 -15 0 -17 3 -8 8 7 5 10 15 7 24 -3 8 1 21 10 28 8 7 15 18
15 24 0 31 56 48 89 27z m165 -7 c7 -19 -31 -72 -66 -90 -38 -20 -50 3 -30 62
14 42 16 44 52 44 25 0 40 -5 44 -16z m-1219 -116 c-93 -105 -272 -263 -380
-334 -165 -110 -326 -180 -482 -208 l-33 -5 6 57 c4 38 1 78 -10 118 -9 34
-16 64 -16 67 0 2 42 7 94 11 247 18 473 100 746 270 58 36 107 65 109 66 2 0
-14 -19 -34 -42z m1516 -443 c-12 -203 -51 -519 -82 -661 -34 -159 -101 -365
-118 -364 -3 1 -19 21 -35 47 -16 25 -49 59 -72 76 l-42 30 35 51 c47 68 106
193 137 290 14 44 24 81 23 83 -2 1 -26 -32 -53 -75 -28 -44 -97 -127 -164
-194 l-115 -118 -40 10 c-22 5 -70 10 -107 10 -38 0 -68 2 -68 3 0 2 54 57
121 123 74 73 152 163 203 234 82 114 186 274 186 285 0 3 10 22 23 43 31 49
85 189 133 341 l39 124 3 -79 c2 -43 -1 -160 -7 -259z m-1076 263 c-61 -121
-163 -232 -318 -347 -58 -42 -184 -107 -192 -99 -10 10 137 156 283 281 86 74
177 156 201 181 25 25 46 44 49 42 2 -2 -9 -28 -23 -58z m716 -23 c-46 -167
-119 -315 -234 -477 -90 -126 -309 -316 -500 -434 -110 -68 -348 -188 -425
-215 -55 -19 -57 -19 -82 -1 -38 28 -101 59 -137 67 -43 9 -42 18 5 34 20 8
116 53 212 101 506 252 809 504 1115 927 32 45 61 81 63 78 2 -2 -6 -38 -17
-80z m229 23 c-48 -204 -149 -429 -257 -573 -81 -108 -269 -303 -395 -411 -51
-44 -112 -98 -137 -121 -29 -29 -52 -43 -70 -43 -27 0 -127 -16 -166 -27 -13
-3 -5 7 20 29 232 195 470 430 596 588 140 177 187 247 362 538 27 45 52 80
55 78 2 -3 -1 -29 -8 -58z m-691 -12 c-27 -62 -78 -151 -130 -227 l-43 -64 44
35 c41 31 138 110 166 135 7 6 48 46 93 89 44 43 81 74 81 67 0 -19 -78 -168
-117 -224 -94 -136 -294 -323 -478 -448 -198 -135 -538 -281 -750 -323 -44 -9
-91 -19 -105 -22 -21 -5 -19 0 21 43 24 26 57 64 71 83 22 29 41 40 102 58
162 48 413 172 513 255 53 44 50 46 -19 11 -89 -45 -225 -94 -335 -120 -58
-13 -108 -23 -110 -20 -2 2 6 20 18 39 21 31 36 39 134 71 265 88 453 212 741
490 65 63 120 115 121 116 1 0 -7 -20 -18 -44z m-874 -233 c-169 -156 -296
-224 -520 -282 -151 -38 -624 -135 -630 -129 -2 2 17 45 41 97 l45 93 42 -6
c237 -32 403 -9 659 94 95 39 289 132 378 183 25 14 47 23 50 20 3 -3 -26 -34
-65 -70z m-325 -444 c-123 -113 -485 -395 -568 -443 -8 -5 -31 13 -64 49 -29
31 -76 70 -105 87 l-53 30 28 22 c53 45 166 118 236 153 68 34 296 125 296
117 0 -2 -19 -21 -41 -42 l-42 -39 109 35 c60 18 138 44 174 57 36 13 70 24
75 24 6 0 -15 -22 -45 -50z m1463 -578 c27 -13 51 -30 54 -37 3 -7 -40 -62
-96 -124 -56 -61 -101 -116 -101 -122 0 -6 7 -5 18 4 18 17 227 138 236 138 3
0 6 -11 6 -24 0 -27 -96 -122 -179 -177 l-46 -30 -9 25 c-14 36 -29 27 -38
-21 -18 -105 -99 -203 -168 -203 -19 0 -18 3 10 26 34 30 72 91 49 81 -148
-64 -156 -66 -189 -39 -20 16 -23 27 -22 87 2 106 36 195 115 300 47 62 118
120 165 136 47 15 143 5 195 -20z m-1100 -44 c54 -32 54 -32 -12 -112 -22 -27
-39 -51 -37 -53 6 -5 83 36 91 48 3 5 10 10 16 10 13 0 -99 -136 -158 -191
-27 -26 -64 -54 -81 -63 -39 -20 -106 -21 -122 -1 -7 8 -22 15 -34 15 -31 0
-86 37 -86 58 0 29 37 130 62 171 37 59 90 113 133 133 61 28 165 22 228 -15z
m-1063 -105 c50 -24 258 -24 314 1 60 27 53 14 -19 -33 -158 -103 -325 -131
-391 -65 -30 30 -31 69 -2 111 21 31 24 32 43 18 11 -8 36 -22 55 -32z m562
-79 c-65 -144 -6 -313 138 -393 l55 -31 -40 7 c-22 4 -56 15 -76 25 -43 21
-101 77 -94 89 3 4 -2 11 -11 14 -8 3 -13 10 -10 15 4 5 1 11 -5 13 -6 2 -12
15 -12 30 -1 14 -4 25 -7 23 -3 -2 -6 30 -8 71 -2 81 5 101 62 162 16 17 31
32 32 32 2 0 -9 -26 -24 -57z m-80 -361 c18 -30 51 -68 72 -83 41 -30 28 -41
-14 -12 -80 53 -130 139 -130 222 0 61 13 56 27 -10 7 -34 27 -87 45 -117z
m773 11 c0 -79 4 -107 21 -144 34 -73 91 -128 167 -164 65 -30 67 -32 44 -44
-42 -23 -155 44 -220 130 -31 42 -77 161 -77 202 0 22 51 117 63 117 1 0 2
-44 2 -97z m296 -26 c-10 -9 -11 -8 -5 6 3 10 9 15 12 12 3 -3 0 -11 -7 -18z
m-1157 -33 c4 -15 21 -47 38 -72 l31 -45 -31 23 c-34 25 -62 75 -62 110 0 28
16 17 24 -16z m753 -186 c24 -54 90 -128 140 -159 31 -19 33 -23 18 -32 -13
-7 -25 -3 -48 14 -17 12 -37 22 -44 22 -20 0 -95 88 -88 104 2 8 1 12 -4 9
-10 -7 -33 42 -26 55 4 5 2 9 -3 9 -16 0 -12 72 6 109 l17 36 6 -60 c3 -33 15
-81 26 -107z m-802 75 c3 -16 18 -40 33 -55 29 -31 24 -35 -18 -13 -29 15 -57
75 -45 95 9 15 22 4 30 -27z m1278 -43 c-34 -34 -60 -50 -77 -50 -14 0 -26 2
-26 4 0 3 21 25 48 50 34 33 55 46 77 46 l30 0 -52 -50z m-1353 -20 c0 -12 8
-35 17 -53 25 -47 25 -57 0 -48 -24 9 -57 66 -57 98 0 16 6 23 20 23 13 0 20
-7 20 -20z m802 -161 c15 -26 41 -58 58 -72 16 -14 30 -27 30 -29 0 -2 -12 -4
-26 -4 -17 -1 -24 2 -20 11 7 19 -30 50 -40 34 -5 -8 -3 -10 6 -4 9 6 11 4 5
-5 -5 -8 -4 -11 3 -6 6 3 13 2 16 -3 8 -13 -22 -7 -36 7 -7 7 -9 12 -5 12 3 0
-4 11 -17 25 -37 40 -58 141 -39 190 4 12 11 -4 22 -46 9 -35 28 -85 43 -110z
m-797 33 c-3 -3 -11 0 -18 7 -9 10 -8 11 6 5 10 -3 15 -9 12 -12z m704 -125
c6 -16 23 -45 38 -65 l27 -37 -33 30 c-18 17 -44 50 -57 75 -14 27 -22 36 -21
23 2 -12 6 -26 10 -29 4 -4 7 -12 7 -18 0 -7 -4 -6 -11 1 -20 20 -29 86 -17
128 l11 40 17 -60 c9 -33 22 -73 29 -88z m-119 -8 c0 -16 7 -46 15 -66 18 -44
18 -42 -1 -39 -9 1 -22 10 -29 19 -7 9 -20 17 -29 17 -9 0 -16 8 -16 21 0 11
5 17 10 14 6 -3 10 3 10 15 0 29 19 62 31 55 5 -4 9 -20 9 -36z m-130 -133 c0
-29 35 -74 66 -86 14 -6 24 -18 24 -29 0 -17 -6 -20 -34 -19 -19 1 -34 4 -33
7 1 3 -14 22 -32 41 l-34 35 22 -32 c27 -40 17 -42 -26 -5 -39 33 -41 55 -8
87 31 32 55 32 55 1z"/>
<path d="M7448 7903 c7 -3 16 -2 19 1 4 3 -2 6 -13 5 -11 0 -14 -3 -6 -6z"/>
<path d="M7440 7865 c-20 -11 -21 -14 -7 -15 10 0 25 7 33 15 19 19 7 19 -26
0z"/>
<path d="M5022 7214 c-14 -10 -22 -26 -22 -44 0 -28 30 -60 55 -60 19 0 55 40
55 60 0 22 -33 60 -53 60 -7 0 -23 -7 -35 -16z"/>
<path d="M5280 6314 c0 -2 9 -8 20 -14 11 -6 20 -7 20 -2 0 6 -9 12 -20 15
-11 3 -20 3 -20 1z"/>
<path d="M5465 6210 c3 -5 11 -10 16 -10 6 0 7 5 4 10 -3 6 -11 10 -16 10 -6
0 -7 -4 -4 -10z"/>
<path d="M5434 6031 c20 -22 26 -25 26 -13 0 4 -10 13 -22 21 -23 14 -23 14
-4 -8z"/>
<path d="M3720 5815 c0 -6 5 -26 11 -45 5 -19 12 -43 14 -54 6 -28 34 -55 56
-53 24 2 24 1 -7 34 -15 15 -37 51 -50 78 -13 28 -24 45 -24 40z"/>
<path d="M4630 2547 c0 -2 15 -16 33 -33 l32 -29 -29 33 c-28 30 -36 37 -36
29z"/>
<path d="M7067 7500 c3 -11 9 -18 13 -15 5 3 6 -4 3 -15 -6 -23 9 -27 26 -7 8
11 7 18 -7 29 -31 27 -40 29 -35 8z"/>
<path d="M7766 7279 c-14 -11 -40 -41 -58 -67 -30 -44 -32 -50 -30 -132 2 -66
-3 -99 -21 -149 -27 -78 -54 -97 -43 -30 18 103 23 165 15 174 -5 5 -9 -3 -9
-20 0 -17 -3 -41 -7 -54 -6 -23 -7 -24 -15 -5 -7 16 -8 16 -4 -4 3 -13 -5 -48
-16 -78 l-21 -54 -20 40 c-12 22 -26 40 -31 40 -6 -1 -29 -26 -51 -57 -22 -31
-70 -87 -107 -124 l-67 -69 365 0 c397 0 407 -1 468 -58 35 -33 65 -96 66
-136 0 -45 -37 -112 -82 -148 -36 -28 -39 -29 -28 -8 28 52 -8 162 -68 208
l-35 27 -428 3 -428 3 -58 -30 -58 -30 433 -1 c429 0 433 0 475 -22 l42 -23
-500 -5 -500 -5 -96 -82 c-140 -120 -182 -189 -183 -303 -2 -144 95 -287 218
-322 57 -16 61 -22 37 -56 -15 -22 -21 -45 -21 -85 l0 -56 43 -3 42 -3 3
-1501 2 -1502 -72 -93 c-40 -51 -78 -94 -84 -96 -8 -3 -13 190 -18 694 -6 757
-14 1023 -27 1001 -5 -7 -9 -69 -9 -138 0 -69 -7 -246 -15 -395 -9 -163 -15
-462 -15 -755 l0 -486 -58 -57 c-32 -31 -61 -57 -66 -57 -5 0 -5 75 -1 167 3
93 1 296 -4 453 -6 157 -14 366 -17 465 -13 387 -18 368 -37 -140 -10 -269
-17 -608 -17 -751 l0 -262 -47 -38 c-27 -20 -53 -41 -59 -46 -7 -5 -14 116
-24 415 -7 232 -14 440 -15 462 -1 22 -4 99 -5 170 l-3 130 -8 -120 c-5 -66
-13 -185 -19 -265 -6 -80 -13 -305 -17 -501 l-6 -356 -59 -37 c-32 -20 -60
-36 -62 -36 -2 0 -5 118 -6 262 0 145 -7 367 -15 493 -8 127 -15 264 -16 305
-2 59 -4 48 -10 -55 -20 -341 -29 -590 -29 -807 l0 -236 -64 -30 c-115 -54
-102 -81 -109 230 -6 260 -28 753 -33 732 -5 -20 -17 -273 -15 -343 1 -41 -6
-132 -14 -204 -8 -71 -15 -211 -15 -312 l0 -183 -96 -32 c-52 -18 -96 -30 -98
-29 -1 2 -9 141 -16 309 -20 481 -25 579 -31 585 -3 3 -9 -66 -12 -152 -4 -87
-14 -216 -22 -288 -8 -71 -15 -179 -15 -240 0 -60 -3 -140 -6 -176 l-7 -66
-106 -20 c-58 -11 -109 -19 -112 -17 -3 2 -7 92 -8 201 -1 109 -6 261 -11 338
-5 77 -10 201 -11 275 l-1 135 -13 -65 c-8 -36 -14 -108 -15 -160 0 -52 -7
-156 -15 -230 -8 -74 -15 -219 -15 -322 l0 -188 -135 0 -135 0 0 148 c0 81 -7
241 -15 357 -10 153 -11 213 -3 223 9 11 7 11 -14 2 -24 -12 -26 -16 -32 -128
-6 -114 -24 -508 -25 -566 l-1 -29 -52 7 c-29 4 -81 12 -115 17 l-63 11 -1
177 c-1 97 -4 215 -8 262 l-6 86 -32 -14 -33 -13 -1 -140 c-1 -77 -3 -144 -4
-150 -1 -5 -3 -50 -4 -99 l-1 -89 -32 8 c-18 4 -63 15 -100 25 l-68 17 0 112
0 111 -47 -47 c-44 -45 -47 -49 -44 -97 l2 -51 -26 10 c-51 19 -61 13 -89 -51
-14 -33 -26 -63 -26 -65 0 -9 105 -52 191 -78 281 -86 619 -126 898 -107 646
45 1235 319 1672 779 124 130 195 220 305 387 143 216 268 470 351 710 28 81
107 391 123 483 30 171 33 249 39 987 l6 770 56 3 57 3 6 59 c7 58 6 60 -25
88 l-31 28 68 13 c121 22 203 83 256 190 18 38 22 62 22 141 0 62 -6 106 -15
127 l-15 33 51 53 c62 64 85 123 85 218 0 188 -152 309 -387 309 l-83 0 0 240
c0 132 -4 240 -9 240 -4 0 -20 -9 -35 -21z m-141 -949 l-29 -30 -177 0 c-140
0 -179 3 -188 14 -27 33 34 44 243 45 l180 1 -29 -30z m-508 -19 c44 -22 84
-63 107 -108 20 -40 21 -151 2 -196 -31 -76 -114 -128 -213 -135 -110 -8 -197
55 -229 164 -15 52 -15 61 0 112 26 92 74 145 163 178 47 18 119 12 170 -15z
m838 -6 c58 -34 101 -92 116 -159 21 -97 -27 -203 -113 -247 -93 -48 -219 -33
-296 35 -45 40 -62 81 -62 153 0 86 16 130 64 178 79 79 198 95 291 40z m-502
-122 c-13 -2 -33 -2 -45 0 -13 2 -3 4 22 4 25 0 35 -2 23 -4z m67 -95 c0 -58
-10 -89 -37 -116 -24 -24 -2 -35 23 -11 l24 22 0 -22 c0 -27 -34 -41 -100 -41
-60 0 -90 25 -109 89 -13 45 -7 121 10 121 6 0 7 6 3 13 -5 7 0 6 11 -3 17
-14 18 -13 13 5 -5 19 -1 20 65 17 57 -3 68 -2 62 9 -5 8 1 5 13 -5 18 -16 22
-30 22 -78z m138 -347 c23 -12 39 -52 27 -70 -7 -13 -615 -16 -615 -3 0 10 58
65 85 81 27 16 471 9 503 -8z m-432 -267 c16 -23 17 -122 16 -1286 -1 -1225
-2 -1261 -21 -1291 -10 -18 -33 -59 -51 -92 -18 -33 -36 -64 -41 -70 -5 -5 -8
536 -7 1355 l3 1364 34 23 c43 29 47 29 67 -3z m189 -621 c-9 -13 -21 -21 -27
-17 -6 4 -8 3 -4 -4 3 -6 2 -13 -4 -17 -10 -6 -15 -45 -6 -45 3 0 16 4 30 10
l26 10 0 -713 0 -713 -40 -110 c-54 -145 -71 -184 -82 -184 -4 0 -8 532 -8
1183 0 930 3 1187 13 1207 10 20 22 26 62 30 l50 5 3 -309 c2 -266 0 -312 -13
-333z m157 626 c40 -21 48 -67 48 -262 0 -156 -2 -187 -16 -198 -13 -10 -17
-10 -25 2 -6 10 -9 7 -9 -13 0 -25 -39 -68 -62 -68 -6 0 -8 100 -6 248 3 217
5 251 21 275 20 31 21 31 49 16z m54 -563 c-4 -20 -18 -49 -31 -65 -14 -16
-25 -34 -25 -39 0 -27 -69 -23 -71 4 -1 8 -2 18 -3 24 -1 10 126 120 133 114
2 -2 0 -19 -3 -38z m-4 -447 l-3 -312 -30 -35 c-33 -37 -33 -50 -1 -33 19 10
21 7 28 -46 5 -45 2 -72 -16 -133 -13 -41 -28 -109 -35 -150 -13 -76 -40 -167
-56 -185 -5 -5 -9 244 -9 573 l0 582 28 0 c15 0 41 11 57 25 17 13 32 24 35
25 3 0 4 -140 2 -311z"/>
<path d="M6944 6241 c-110 -50 -132 -176 -45 -262 67 -67 169 -62 235 12 58
64 60 142 4 205 -58 66 -118 80 -194 45z m144 -95 c21 -20 22 -28 16 -75 -6
-45 -12 -56 -38 -73 -39 -24 -98 -19 -132 13 -27 25 -49 83 -40 106 6 14 8 14
25 -1 18 -17 20 -16 26 3 3 11 18 30 33 42 33 25 76 20 110 -15z"/>
<path d="M7803 6260 c-38 -9 -97 -51 -119 -85 -43 -65 -20 -167 47 -212 79
-52 186 -35 243 40 91 119 -25 292 -171 257z m98 -53 c109 -73 54 -227 -82
-227 -48 0 -109 65 -109 116 0 22 5 46 10 54 8 12 10 11 10 -7 0 -30 6 -29 34
4 31 36 90 38 117 4 12 -14 19 -18 19 -9 0 23 -30 58 -63 72 l-32 14 31 1 c17
1 46 -9 65 -22z"/>
<path d="M7574 5180 c0 -80 2 -112 3 -72 2 39 2 105 0 145 -1 39 -3 7 -3 -73z"/>
<path d="M3155 6165 c-33 -84 2 -166 89 -210 63 -32 74 -32 68 0 -3 16 -13 27
-28 31 -30 8 -81 65 -90 101 -4 15 -2 40 4 56 8 21 8 34 -1 48 -17 28 -23 24
-42 -26z"/>
<path d="M3288 5893 c6 -2 18 -2 25 0 6 3 1 5 -13 5 -14 0 -19 -2 -12 -5z"/>
<path d="M2924 4950 c0 -52 1 -74 3 -47 2 26 2 68 0 95 -2 26 -3 4 -3 -48z"/>
<path d="M3191 4710 c1 -135 4 -271 8 -303 l6 -59 53 66 52 65 0 161 0 162
-47 61 c-27 33 -53 68 -60 77 -10 12 -12 -36 -12 -230z"/>
<path d="M2918 4135 c-1 -30 0 -55 5 -55 4 0 7 25 7 55 0 71 -7 71 -12 0z"/>
<path d="M2655 3494 c34 -149 163 -463 261 -636 95 -168 279 -428 302 -428 4
0 32 28 63 63 51 57 55 65 43 82 -10 14 -14 54 -14 144 l-1 126 -53 57 -54 56
-7 -110 c-4 -61 -11 -106 -15 -102 -5 5 -31 51 -59 103 l-51 95 -7 183 c-5
137 -9 183 -19 183 -7 0 -19 3 -28 6 -13 5 -16 -10 -18 -113 l-3 -118 -24 40
c-13 22 -43 91 -67 154 -24 63 -45 115 -46 116 -2 2 -37 23 -78 47 -41 24 -88
52 -103 63 l-28 18 6 -29z"/>
<path d="M2388 6240 c-52 -28 -81 -73 -85 -134 -10 -132 135 -220 251 -153 54
30 78 67 84 125 12 131 -132 224 -250 162z m169 -54 c18 -20 33 -41 33 -48 0
-7 -9 1 -20 19 -20 33 -66 63 -97 63 -20 0 -63 -26 -63 -38 0 -4 25 -7 56 -7
49 0 59 -4 80 -28 31 -36 30 -48 -3 -88 l-27 -32 24 13 c23 12 24 12 11 -3
-18 -22 -3 -22 23 0 16 14 16 12 -2 -9 -95 -107 -263 -6 -208 125 34 83 132
100 193 33z"/>
<path d="M2457 6039 c7 -7 15 -10 18 -7 3 3 -2 9 -12 12 -14 6 -15 5 -6 -5z"/>
<path d="M2338 5920 c28 -24 84 -40 132 -39 25 1 19 4 -24 10 -32 5 -75 18
-95 29 -35 20 -35 20 -13 0z"/>
<path d="M2722 5240 c0 -19 2 -27 5 -17 2 9 2 25 0 35 -3 9 -5 1 -5 -18z"/>
<path d="M2723 5100 c0 -30 2 -43 4 -27 2 15 2 39 0 55 -2 15 -4 2 -4 -28z"/>
<path d="M2700 5035 c0 -2 7 -8 15 -15 12 -10 15 -10 15 2 0 8 -7 15 -15 15
-8 0 -15 -1 -15 -2z"/>
</g>
</svg>
